<svg width="28" height="20" viewBox="0 0 28 20" fill="none" xmlns="http://www.w3.org/2000/svg">
<path d="M25.6667 20C25.6667 20 27.3333 20 27.3333 18.3333C27.3333 16.6667 25.6667 11.6667 19 11.6667C12.3333 11.6667 10.6667 16.6667 10.6667 18.3333C10.6667 20 12.3333 20 12.3333 20H25.6667ZM12.37 18.3333L12.3333 18.3267C12.335 17.8867 12.6117 16.61 13.6 15.46C14.52 14.3817 16.1367 13.3333 19 13.3333C21.8617 13.3333 23.4783 14.3833 24.4 15.46C25.3883 16.61 25.6633 17.8883 25.6667 18.3267L25.6533 18.33L25.63 18.3333H12.37ZM19 8.33333C19.8841 8.33333 20.7319 7.98214 21.357 7.35702C21.9821 6.7319 22.3333 5.88405 22.3333 5C22.3333 4.11594 21.9821 3.2681 21.357 2.64298C20.7319 2.01786 19.8841 1.66667 19 1.66667C18.1159 1.66667 17.2681 2.01786 16.643 2.64298C16.0179 3.2681 15.6667 4.11594 15.6667 5C15.6667 5.88405 16.0179 6.7319 16.643 7.35702C17.2681 7.98214 18.1159 8.33333 19 8.33333ZM24 5C24 5.65661 23.8707 6.30679 23.6194 6.91342C23.3681 7.52004 22.9998 8.07124 22.5355 8.53553C22.0712 8.99983 21.5201 9.36812 20.9134 9.6194C20.3068 9.87067 19.6566 10 19 10C18.3434 10 17.6932 9.87067 17.0866 9.6194C16.48 9.36812 15.9288 8.99983 15.4645 8.53553C15.0002 8.07124 14.6319 7.52004 14.3806 6.91342C14.1293 6.30679 14 5.65661 14 5C14 3.67392 14.5268 2.40215 15.4645 1.46447C16.4022 0.526784 17.6739 0 19 0C20.3261 0 21.5979 0.526784 22.5355 1.46447C23.4732 2.40215 24 3.67392 24 5ZM12.2267 12.1333C11.5596 11.9249 10.8725 11.7869 10.1767 11.7217C9.78563 11.6835 9.3929 11.6652 9 11.6667C2.33334 11.6667 0.666672 16.6667 0.666672 18.3333C0.666672 19.4444 1.22223 20 2.33334 20H9.36001C9.11305 19.4797 8.98983 18.9092 9 18.3333C9 16.65 9.62834 14.93 10.8167 13.4933C11.2217 13.0033 11.6933 12.545 12.2267 12.1333ZM8.86667 13.3333C7.88088 14.8157 7.34808 16.5531 7.33334 18.3333H2.33334C2.33334 17.9 2.60667 16.6167 3.6 15.46C4.50834 14.4 6.08667 13.3667 8.86667 13.335V13.3333ZM3.16667 5.83333C3.16667 4.50725 3.69346 3.23548 4.63114 2.2978C5.56882 1.36012 6.84059 0.833333 8.16667 0.833333C9.49275 0.833333 10.7645 1.36012 11.7022 2.2978C12.6399 3.23548 13.1667 4.50725 13.1667 5.83333C13.1667 7.15942 12.6399 8.43118 11.7022 9.36887C10.7645 10.3065 9.49275 10.8333 8.16667 10.8333C6.84059 10.8333 5.56882 10.3065 4.63114 9.36887C3.69346 8.43118 3.16667 7.15942 3.16667 5.83333ZM8.16667 2.5C7.28262 2.5 6.43477 2.85119 5.80965 3.47631C5.18453 4.10143 4.83334 4.94928 4.83334 5.83333C4.83334 6.71739 5.18453 7.56523 5.80965 8.19036C6.43477 8.81548 7.28262 9.16667 8.16667 9.16667C9.05073 9.16667 9.89857 8.81548 10.5237 8.19036C11.1488 7.56523 11.5 6.71739 11.5 5.83333C11.5 4.94928 11.1488 4.10143 10.5237 3.47631C9.89857 2.85119 9.05073 2.5 8.16667 2.5Z" fill="#754342"/>
</svg>
