<svg width="17" height="23" viewBox="0 0 17 23" fill="none" xmlns="http://www.w3.org/2000/svg">
<path d="M14.7 2.6625H11.8125V2.025C11.8125 0.9 10.9125 0 9.7875 0H6.9C5.775 0 4.875 0.9 4.875 2.025V2.6625H1.9875C0.9 2.6625 0 3.5625 0 4.65V5.775C0 6.6 0.4875 7.275 1.2 7.575L1.8 20.55C1.875 21.7875 2.85 22.725 4.0875 22.725H12.525C13.7625 22.725 14.775 21.75 14.8125 20.55L15.4875 7.5375C16.2 7.2375 16.6875 6.525 16.6875 5.7375V4.6125C16.6875 3.5625 15.7875 2.6625 14.7 2.6625ZM6.6 2.025C6.6 1.8375 6.75 1.6875 6.9375 1.6875H9.825C10.0125 1.6875 10.1625 1.8375 10.1625 2.025V2.6625H6.6375V2.025H6.6ZM1.725 4.65C1.725 4.5 1.8375 4.35 2.025 4.35H14.7C14.85 4.35 15 4.4625 15 4.65V5.775C15 5.925 14.8875 6.075 14.7 6.075H2.025C1.875 6.075 1.725 5.9625 1.725 5.775V4.65ZM12.5625 21.0375H4.1625C3.825 21.0375 3.5625 20.775 3.5625 20.475L2.9625 7.7625H13.8L13.2 20.475C13.1625 20.775 12.9 21.0375 12.5625 21.0375Z" fill="black"/>
<path d="M8.3625 11.5125C7.9125 11.5125 7.5 11.8875 7.5 12.375V17.1375C7.5 17.5875 7.875 18 8.3625 18C8.8125 18 9.225 17.625 9.225 17.1375V12.375C9.225 11.8875 8.8125 11.5125 8.3625 11.5125Z" fill="black"/>
<path d="M11.3625 12.2625C10.875 12.225 10.5 12.5625 10.4625 13.05L10.2375 16.35C10.2 16.8 10.5375 17.2125 11.025 17.25C11.0625 17.25 11.0625 17.25 11.1 17.25C11.55 17.25 11.925 16.9125 11.925 16.4625L12.15 13.1625C12.15 12.675 11.8125 12.3 11.3625 12.2625Z" fill="black"/>
<path d="M5.325 12.2625C4.875 12.3 4.5 12.7125 4.5375 13.1625L4.8 16.4625C4.8375 16.9125 5.2125 17.25 5.625 17.25C5.6625 17.25 5.6625 17.25 5.7 17.25C6.15 17.2125 6.525 16.8 6.4875 16.35L6.225 13.05C6.225 12.5625 5.8125 12.225 5.325 12.2625Z" fill="black"/>
</svg>
