<svg width="21" height="24" viewBox="0 0 21 24" fill="none" xmlns="http://www.w3.org/2000/svg">
<path d="M20.4554 20.3564L19.6634 19.1287C19.5049 18.8911 19.4257 18.6535 19.4257 18.3762V10.1386C19.4257 7.80198 18.4356 5.62376 16.6139 4C15.1485 2.69307 13.2475 1.86139 11.2277 1.70297V0.910891C11.2277 0.435644 10.8317 0 10.3168 0C9.84158 0 9.40594 0.39604 9.40594 0.910891V1.66337C9.32673 1.66337 9.24752 1.66337 9.16832 1.70297C4.57426 2.21782 1.12871 5.90099 1.12871 10.297V18.3762C1.08911 18.7723 1.0099 18.9703 0.930693 19.0891L0.178218 20.3564C-0.0594059 20.7525 -0.0594059 21.2277 0.178218 21.6238C0.415842 21.9802 0.811881 22.2178 1.24752 22.2178H9.44554V23.0891C9.44554 23.5644 9.84158 24 10.3564 24C10.8317 24 11.2673 23.604 11.2673 23.0891V22.2178H19.4257C19.8614 22.2178 20.2574 21.9802 20.4951 21.6238C20.7327 21.2277 20.7327 20.7525 20.4554 20.3564Z" fill="#754342"/>
</svg>
