<svg width="23" height="17" viewBox="0 0 23 17" fill="none" xmlns="http://www.w3.org/2000/svg">
<path d="M2.875 2.83333C2.1125 2.83333 1.38124 3.13184 0.842068 3.6632C0.302901 4.19455 0 4.91522 0 5.66667L0 14.1667C0 14.9181 0.302901 15.6388 0.842068 16.1701C1.38124 16.7015 2.1125 17 2.875 17H20.125C20.8875 17 21.6188 16.7015 22.1579 16.1701C22.6971 15.6388 23 14.9181 23 14.1667V5.66667C23 4.91522 22.6971 4.19455 22.1579 3.6632C21.6188 3.13184 20.8875 2.83333 20.125 2.83333H18.4403C17.6778 2.83317 16.9467 2.53456 16.4076 2.00317L15.2174 0.830167C14.6783 0.298777 13.9472 0.000160473 13.1847 0H9.81525C9.05282 0.000160473 8.32167 0.298777 7.78263 0.830167L6.59237 2.00317C6.05333 2.53456 5.32219 2.83317 4.55975 2.83333H2.875ZM3.59375 5.66667C3.40313 5.66667 3.22031 5.59204 3.08552 5.4592C2.95073 5.32636 2.875 5.14619 2.875 4.95833C2.875 4.77047 2.95073 4.5903 3.08552 4.45747C3.22031 4.32463 3.40313 4.25 3.59375 4.25C3.78437 4.25 3.96719 4.32463 4.10198 4.45747C4.23677 4.5903 4.3125 4.77047 4.3125 4.95833C4.3125 5.14619 4.23677 5.32636 4.10198 5.4592C3.96719 5.59204 3.78437 5.66667 3.59375 5.66667ZM16.5312 9.20833C16.5312 10.5234 16.0012 11.7845 15.0576 12.7144C14.1141 13.6443 12.8344 14.1667 11.5 14.1667C10.1656 14.1667 8.88591 13.6443 7.94237 12.7144C6.99883 11.7845 6.46875 10.5234 6.46875 9.20833C6.46875 7.8933 6.99883 6.63213 7.94237 5.70226C8.88591 4.77239 10.1656 4.25 11.5 4.25C12.8344 4.25 14.1141 4.77239 15.0576 5.70226C16.0012 6.63213 16.5312 7.8933 16.5312 9.20833Z" fill="white"/>
</svg>
