<svg width="21" height="20" viewBox="0 0 21 20" fill="none" xmlns="http://www.w3.org/2000/svg">
<path d="M19.9506 17.8336L14.4969 13.4045C16.7445 10.3305 16.5131 5.93445 13.7036 3.15797C12.2162 1.67057 10.233 0.844238 8.11756 0.844238C6.00215 0.844238 4.01896 1.67057 2.53156 3.15797C-0.5424 6.23193 -0.5424 11.256 2.53156 14.33C4.01896 15.8174 6.00215 16.6437 8.11756 16.6437C10.1338 16.6437 12.0179 15.8835 13.5053 14.5283L19.0252 18.9905C19.1574 19.0897 19.3226 19.1558 19.4879 19.1558C19.7193 19.1558 19.9176 19.0566 20.0498 18.8913C20.3142 18.5608 20.2812 18.0981 19.9506 17.8336ZM8.11756 15.1563C6.39879 15.1563 4.81223 14.4953 3.58926 13.2723C1.07721 10.7602 1.07721 6.69467 3.58926 4.21567C4.81223 2.9927 6.39879 2.33164 8.11756 2.33164C9.83634 2.33164 11.4229 2.9927 12.6459 4.21567C15.1579 6.72773 15.1579 10.7933 12.6459 13.2723C11.4559 14.4953 9.83634 15.1563 8.11756 15.1563Z" fill="#754342"/>
</svg>
