<svg width="22" height="24" viewBox="0 0 22 24" fill="none" xmlns="http://www.w3.org/2000/svg">
<path d="M15.5632 13.1089H11.9592V9.42572C11.9592 8.95047 11.5632 8.51483 11.0483 8.51483C10.5731 8.51483 10.1374 8.91087 10.1374 9.42572V13.1089H10.0186C9.54336 13.1089 9.10771 13.5049 9.10771 14.0198C9.10771 14.5346 9.50375 14.9307 10.0186 14.9307H10.1374V15.0495C10.1374 15.5247 10.5335 15.9604 11.0483 15.9604C11.5236 15.9604 11.9592 15.5643 11.9592 15.0495V14.9307H15.5632C16.0384 14.9307 16.474 14.5346 16.474 14.0198C16.474 13.5049 16.0384 13.1089 15.5632 13.1089Z" fill="#754342"/>
<path d="M21.9394 6.89109C21.9394 4.71287 20.1968 2.9703 18.0186 2.9703C16.9889 2.9703 16.0384 3.36634 15.3255 4.0396C14.2562 3.56436 13.1473 3.24752 11.9196 3.16832V1.82178H13.0285C13.5038 1.82178 13.9394 1.42574 13.9394 0.910891C13.9394 0.39604 13.5434 0 13.0285 0H9.02851C8.55326 0 8.11761 0.39604 8.11761 0.910891C8.11761 1.42574 8.51365 1.82178 9.02851 1.82178H10.1374V3.20792C8.9493 3.32673 7.80078 3.60396 6.73148 4.07921C6.01861 3.40594 5.06811 3.0099 4.03841 3.0099C1.86019 3.0099 0.117615 4.75248 0.117615 6.93069C0.117615 8 0.553258 9.0297 1.34534 9.74257C0.87009 10.9307 0.592862 12.2376 0.592862 13.5842C0.592862 19.3267 5.26613 24 11.0087 24C16.7513 24 21.4245 19.3267 21.4245 13.5842C21.4245 12.2376 21.1473 10.9307 20.6721 9.74257C21.5038 8.9901 21.9394 7.9604 21.9394 6.89109ZM18.0186 4.75248C19.2067 4.75248 20.1572 5.70297 20.1572 6.89109C20.1572 7.28713 20.0384 7.68317 19.8404 8C19.0879 6.81188 18.1374 5.82178 16.9889 5.0297C17.3057 4.83168 17.6622 4.75248 18.0186 4.75248ZM1.9394 6.89109C1.9394 5.70297 2.88989 4.75248 4.07801 4.75248C4.43445 4.75248 4.79088 4.83168 5.10771 5.0297C3.9592 5.82178 3.0087 6.85148 2.25623 8C2.05821 7.64356 1.9394 7.28713 1.9394 6.89109ZM11.0483 22.2178C6.29583 22.2178 2.41464 18.3366 2.41464 13.5842C2.41464 8.83168 6.29583 4.9505 11.0483 4.9505C15.8008 4.9505 19.682 8.83168 19.682 13.5842C19.682 18.3366 15.8008 22.2178 11.0483 22.2178Z" fill="#754342"/>
</svg>
