<svg width="24" height="19" viewBox="0 0 24 19" fill="none" xmlns="http://www.w3.org/2000/svg">
<path d="M20.9209 5.43075H20.089V2.63265C20.089 1.91422 19.7487 1.19579 19.1437 0.779862C18.5387 0.363929 17.7825 0.250492 17.1019 0.477365L2.88453 5.39294H2.4686C1.2208 5.39294 0.199875 6.41387 0.199875 7.66166V16.0938C0.199875 17.3416 1.2208 18.3625 2.4686 18.3625H20.9209C22.1687 18.3625 23.1896 17.3416 23.1896 16.0938V7.69948C23.1896 6.45168 22.1687 5.43075 20.9209 5.43075ZM17.5934 1.91422C17.8203 1.8386 18.085 1.87641 18.2741 2.02766C18.4631 2.17891 18.5766 2.40578 18.5766 2.63265V5.43075H7.49761L17.5934 1.91422ZM20.9209 16.85H2.4686C2.05267 16.85 1.71236 16.5097 1.71236 16.0938V7.69948C1.71236 7.28354 2.05267 6.94323 2.4686 6.94323H20.9209C21.3368 6.94323 21.6771 7.28354 21.6771 7.69948V9.17415H17.3666C15.8163 9.17415 14.5685 10.4219 14.5685 11.9722C14.5685 13.5225 15.8163 14.7703 17.3666 14.7703H21.6771V16.1316C21.6771 16.5097 21.3368 16.85 20.9209 16.85ZM21.6771 10.6866V13.2579H17.3666C16.6481 13.2579 16.081 12.6907 16.081 11.9722C16.081 11.2538 16.6481 10.6866 17.3666 10.6866H21.6771Z" fill="black"/>
</svg>
