<svg width="23" height="18" viewBox="0 0 23 18" fill="none" xmlns="http://www.w3.org/2000/svg">
<path d="M20.721 5.06826H19.8892V2.27017C19.8892 1.55174 19.5489 0.833307 18.9439 0.417374C18.3389 0.00144088 17.5826 -0.111995 16.902 0.114877L2.68466 5.03045H2.26873C1.02093 5.03045 0 6.05138 0 7.29918V15.7313C0 16.9791 1.02093 18 2.26873 18H20.721C21.9688 18 22.9898 16.9791 22.9898 15.7313V7.33699C22.9898 6.08919 21.9688 5.06826 20.721 5.06826ZM17.3936 1.55174C17.6204 1.47611 17.8851 1.51392 18.0742 1.66517C18.2632 1.81642 18.3767 2.04329 18.3767 2.27017V5.06826H7.29773L17.3936 1.55174ZM20.721 16.4875H2.26873C1.85279 16.4875 1.51248 16.1472 1.51248 15.7313V7.33699C1.51248 6.92105 1.85279 6.58075 2.26873 6.58075H20.721C21.137 6.58075 21.4773 6.92105 21.4773 7.33699V8.81166H17.1667C15.6164 8.81166 14.3686 10.0595 14.3686 11.6098C14.3686 13.1601 15.6164 14.4079 17.1667 14.4079H21.4773V15.7691C21.4773 16.1472 21.137 16.4875 20.721 16.4875ZM21.4773 10.3241V12.8954H17.1667C16.4483 12.8954 15.8811 12.3282 15.8811 11.6098C15.8811 10.8913 16.4483 10.3241 17.1667 10.3241H21.4773Z" fill="white"/>
</svg>
