<svg width="23" height="23" viewBox="0 0 23 23" fill="none" xmlns="http://www.w3.org/2000/svg">
<path d="M21.5602 20.7625L11.5966 20.7261L21.9966 10.3261C22.8693 9.4534 22.8693 7.99885 21.9966 7.12612L15.9239 1.01703C15.4875 0.58067 14.942 0.362488 14.3239 0.362488C13.7057 0.362488 13.1239 0.617033 12.7239 1.01703L2.21477 11.5261C1.23295 12.5079 0.6875 13.817 0.6875 15.1625C0.6875 16.5079 1.23295 17.8534 2.21477 18.7989L4.17841 20.7625C5.19659 21.7807 6.50568 22.2898 7.81477 22.2898C7.85114 22.2898 7.85114 22.2898 7.8875 22.2898H7.92386L21.5602 22.3625C21.9966 22.3625 22.3602 21.9989 22.3966 21.5625C22.3966 21.1261 22.033 20.7625 21.5602 20.7625ZM13.8511 2.18067C13.9602 2.07158 14.142 1.99885 14.2875 1.99885C14.433 1.99885 14.6148 2.07158 14.7239 2.18067L20.7966 8.2534C21.0511 8.50794 21.0511 8.90794 20.7966 9.16249L12.942 17.0534L5.96023 10.0716L13.8511 2.18067ZM3.34205 17.7079C2.6875 17.0534 2.32386 16.1443 2.32386 15.1989C2.32386 14.2534 2.6875 13.3807 3.34205 12.6898L4.79659 11.2352L11.742 18.1807L10.2875 19.6352C8.90568 21.017 6.6875 21.017 5.30568 19.6352L3.34205 17.7079Z" fill="black"/>
</svg>
