<svg width="26" height="30" viewBox="0 0 26 30" fill="none" xmlns="http://www.w3.org/2000/svg">
<g filter="url(#filter0_d_196_7344)">
<path d="M20.4 3.12727H20.3273C20.0727 3.12727 19.8182 3.12727 19.5636 3.12727V2.29091C19.5636 1.05455 18.5455 0 17.2727 0H6.29091C5.01818 0.0363636 4 1.05455 4 2.29091V14.7273C4 15.2 4.18182 15.6364 4.50909 16L9.81818 21.4545C10.1455 21.8182 10.6182 22 11.1273 22H17.7818C18.7636 22 19.6 21.2 19.6 20.1818V19.8545L21.3455 16.3273C21.4182 16.2182 21.4182 16.1091 21.4182 15.9636L21.4545 4.18182C21.4545 3.63636 20.9818 3.16364 20.4 3.12727ZM19.8182 6.07273H17.7818V4.72727C18.4727 4.72727 19.1273 4.72727 19.8182 4.72727V6.07273ZM9.74545 19.0182L6.76364 15.9636H9.74545V19.0182ZM17.7818 20.4H11.3818V15.3455C11.3818 14.7636 10.9091 14.3273 10.3636 14.3273H5.63636V2.29091C5.63636 1.92727 5.92727 1.63636 6.29091 1.63636H17.3455C17.7091 1.63636 18 1.92727 18 2.29091V3.09091C17.7455 3.09091 17.5273 3.09091 17.2727 3.09091C16.6545 3.09091 16.1818 3.56364 16.1818 4.14545L16.1455 15.9636C16.1455 16.1091 16.1818 16.2182 16.2182 16.3273L18 19.8545V20.1818C17.9636 20.2909 17.8909 20.4 17.7818 20.4ZM18.7636 17.8545L17.7455 15.7818V7.70909H19.7818V15.7818L18.7636 17.8545Z" fill="black"/>
</g>
<defs>
<filter id="filter0_d_196_7344" x="0" y="0" width="25.4545" height="30" filterUnits="userSpaceOnUse" color-interpolation-filters="sRGB">
<feFlood flood-opacity="0" result="BackgroundImageFix"/>
<feColorMatrix in="SourceAlpha" type="matrix" values="0 0 0 0 0 0 0 0 0 0 0 0 0 0 0 0 0 0 127 0" result="hardAlpha"/>
<feOffset dy="4"/>
<feGaussianBlur stdDeviation="2"/>
<feComposite in2="hardAlpha" operator="out"/>
<feColorMatrix type="matrix" values="0 0 0 0 0 0 0 0 0 0 0 0 0 0 0 0 0 0 0.25 0"/>
<feBlend mode="normal" in2="BackgroundImageFix" result="effect1_dropShadow_196_7344"/>
<feBlend mode="normal" in="SourceGraphic" in2="effect1_dropShadow_196_7344" result="shape"/>
</filter>
</defs>
</svg>
