<svg width="33" height="32" viewBox="0 0 33 32" fill="none" xmlns="http://www.w3.org/2000/svg">
<g filter="url(#filter0_d_1_137)">
<path d="M20.8333 9.75C20.8333 9.55109 20.9123 9.36032 21.053 9.21967C21.1937 9.07902 21.3844 9 21.5833 9H23.0833C23.2822 9 23.473 9.07902 23.6137 9.21967C23.7543 9.36032 23.8333 9.55109 23.8333 9.75V11.25C23.8333 11.4489 23.7543 11.6397 23.6137 11.7803C23.473 11.921 23.2822 12 23.0833 12H21.5833C21.3844 12 21.1937 11.921 21.053 11.7803C20.9123 11.6397 20.8333 11.4489 20.8333 11.25V9.75ZM16.3333 9.75C16.3333 9.55109 16.4123 9.36032 16.553 9.21967C16.6936 9.07902 16.8844 9 17.0833 9H18.5833C18.7822 9 18.973 9.07902 19.1137 9.21967C19.2543 9.36032 19.3333 9.55109 19.3333 9.75V11.25C19.3333 11.4489 19.2543 11.6397 19.1137 11.7803C18.973 11.921 18.7822 12 18.5833 12H17.0833C16.8844 12 16.6936 11.921 16.553 11.7803C16.4123 11.6397 16.3333 11.4489 16.3333 11.25V9.75ZM8.83333 14.25C8.83333 14.0511 8.91235 13.8603 9.053 13.7197C9.19365 13.579 9.38442 13.5 9.58333 13.5H11.0833C11.2822 13.5 11.473 13.579 11.6137 13.7197C11.7543 13.8603 11.8333 14.0511 11.8333 14.25V15.75C11.8333 15.9489 11.7543 16.1397 11.6137 16.2803C11.473 16.421 11.2822 16.5 11.0833 16.5H9.58333C9.38442 16.5 9.19365 16.421 9.053 16.2803C8.91235 16.1397 8.83333 15.9489 8.83333 15.75V14.25ZM13.3333 14.25C13.3333 14.0511 13.4123 13.8603 13.553 13.7197C13.6937 13.579 13.8844 13.5 14.0833 13.5H15.5833C15.7822 13.5 15.973 13.579 16.1137 13.7197C16.2543 13.8603 16.3333 14.0511 16.3333 14.25V15.75C16.3333 15.9489 16.2543 16.1397 16.1137 16.2803C15.973 16.421 15.7822 16.5 15.5833 16.5H14.0833C13.8844 16.5 13.6937 16.421 13.553 16.2803C13.4123 16.1397 13.3333 15.9489 13.3333 15.75V14.25Z" fill="#754342"/>
<path d="M9.58333 0C9.78224 0 9.97301 0.0790176 10.1137 0.21967C10.2543 0.360322 10.3333 0.551088 10.3333 0.75V1.5H22.3333V0.75C22.3333 0.551088 22.4123 0.360322 22.553 0.21967C22.6936 0.0790176 22.8844 0 23.0833 0C23.2822 0 23.473 0.0790176 23.6137 0.21967C23.7543 0.360322 23.8333 0.551088 23.8333 0.75V1.5H25.3333C26.129 1.5 26.892 1.81607 27.4546 2.37868C28.0173 2.94129 28.3333 3.70435 28.3333 4.5V21C28.3333 21.7956 28.0173 22.5587 27.4546 23.1213C26.892 23.6839 26.129 24 25.3333 24H7.33333C6.53768 24 5.77462 23.6839 5.21201 23.1213C4.6494 22.5587 4.33333 21.7956 4.33333 21V4.5C4.33333 3.70435 4.6494 2.94129 5.21201 2.37868C5.77462 1.81607 6.53768 1.5 7.33333 1.5H8.83333V0.75C8.83333 0.551088 8.91235 0.360322 9.053 0.21967C9.19365 0.0790176 9.38442 0 9.58333 0ZM5.83333 6V21C5.83333 21.3978 5.99136 21.7794 6.27267 22.0607C6.55397 22.342 6.9355 22.5 7.33333 22.5H25.3333C25.7312 22.5 26.1127 22.342 26.394 22.0607C26.6753 21.7794 26.8333 21.3978 26.8333 21V6H5.83333Z" fill="#754342"/>
</g>
<defs>
<filter id="filter0_d_1_137" x="0.333328" y="0" width="32" height="32" filterUnits="userSpaceOnUse" color-interpolation-filters="sRGB">
<feFlood flood-opacity="0" result="BackgroundImageFix"/>
<feColorMatrix in="SourceAlpha" type="matrix" values="0 0 0 0 0 0 0 0 0 0 0 0 0 0 0 0 0 0 127 0" result="hardAlpha"/>
<feOffset dy="4"/>
<feGaussianBlur stdDeviation="2"/>
<feComposite in2="hardAlpha" operator="out"/>
<feColorMatrix type="matrix" values="0 0 0 0 0 0 0 0 0 0 0 0 0 0 0 0 0 0 0.25 0"/>
<feBlend mode="normal" in2="BackgroundImageFix" result="effect1_dropShadow_1_137"/>
<feBlend mode="normal" in="SourceGraphic" in2="effect1_dropShadow_1_137" result="shape"/>
</filter>
</defs>
</svg>
