<svg width="25" height="20" viewBox="0 0 25 20" fill="none" xmlns="http://www.w3.org/2000/svg">
<path d="M10.3372 10C11.6633 10 12.9351 9.47322 13.8727 8.53553C14.8104 7.59785 15.3372 6.32608 15.3372 5C15.3372 3.67392 14.8104 2.40215 13.8727 1.46447C12.9351 0.526784 11.6633 0 10.3372 0C9.01112 0 7.73935 0.526784 6.80167 1.46447C5.86399 2.40215 5.3372 3.67392 5.3372 5C5.3372 6.32608 5.86399 7.59785 6.80167 8.53553C7.73935 9.47322 9.01112 10 10.3372 10ZM13.6705 5C13.6705 5.88405 13.3193 6.7319 12.6942 7.35702C12.0691 7.98214 11.2213 8.33333 10.3372 8.33333C9.45315 8.33333 8.6053 7.98214 7.98018 7.35702C7.35506 6.7319 7.00387 5.88405 7.00387 5C7.00387 4.11594 7.35506 3.2681 7.98018 2.64298C8.6053 2.01786 9.45315 1.66667 10.3372 1.66667C11.2213 1.66667 12.0691 2.01786 12.6942 2.64298C13.3193 3.2681 13.6705 4.11594 13.6705 5ZM20.3372 18.3333C20.3372 20 18.6705 20 18.6705 20H2.00387C2.00387 20 0.337204 20 0.337204 18.3333C0.337204 16.6667 2.00387 11.6667 10.3372 11.6667C18.6705 11.6667 20.3372 16.6667 20.3372 18.3333ZM18.6705 18.3267C18.6689 17.9167 18.4139 16.6833 17.2839 15.5533C16.1972 14.4667 14.1522 13.3333 10.3372 13.3333C6.5222 13.3333 4.4772 14.4667 3.39054 15.5533C2.26054 16.6833 2.0072 17.9167 2.00387 18.3267H18.6705Z" fill="#754342"/>
<path fill-rule="evenodd" clip-rule="evenodd" d="M20.5039 5C20.7249 5 20.9368 5.0878 21.0931 5.24408C21.2494 5.40036 21.3372 5.61232 21.3372 5.83333V8.33333H23.8372C24.0582 8.33333 24.2702 8.42113 24.4265 8.57741C24.5827 8.73369 24.6705 8.94565 24.6705 9.16667C24.6705 9.38768 24.5827 9.59964 24.4265 9.75592C24.2702 9.9122 24.0582 10 23.8372 10H21.3372V12.5C21.3372 12.721 21.2494 12.933 21.0931 13.0893C20.9368 13.2455 20.7249 13.3333 20.5039 13.3333C20.2829 13.3333 20.0709 13.2455 19.9146 13.0893C19.7583 12.933 19.6705 12.721 19.6705 12.5V10H17.1705C16.9495 10 16.7376 9.9122 16.5813 9.75592C16.425 9.59964 16.3372 9.38768 16.3372 9.16667C16.3372 8.94565 16.425 8.73369 16.5813 8.57741C16.7376 8.42113 16.9495 8.33333 17.1705 8.33333H19.6705V5.83333C19.6705 5.61232 19.7583 5.40036 19.9146 5.24408C20.0709 5.0878 20.2829 5 20.5039 5Z" fill="#754342"/>
</svg>
