<svg width="17" height="17" viewBox="0 0 17 17" fill="none" xmlns="http://www.w3.org/2000/svg">
<path d="M8.65798 5.07812C6.86414 5.07812 5.38686 6.55541 5.38686 8.34925C5.38686 10.1695 6.86414 11.6204 8.65798 11.6204C10.4518 11.6204 11.9291 10.1695 11.9291 8.34925C11.9291 6.55541 10.4518 5.07812 8.65798 5.07812ZM8.65798 10.4597C7.49726 10.4597 6.57396 9.50997 6.57396 8.37563C6.57396 7.21491 7.49726 6.29161 8.65798 6.29161C9.8187 6.29161 10.742 7.21491 10.742 8.34925C10.742 9.50997 9.79232 10.4597 8.65798 10.4597Z" fill="#828282"/>
<path d="M16.2027 9.95848L14.7254 9.14069C14.7782 8.85051 14.8045 8.56033 14.8045 8.27015C14.8045 7.95359 14.7782 7.66341 14.7518 7.37323L16.2554 6.52907C16.5984 6.34441 16.7303 5.92233 16.572 5.55301L15.042 2.96776C14.8573 2.6512 14.4352 2.5193 14.0923 2.6512L12.5095 3.52175C12.4303 3.46899 12.3512 3.38985 12.2984 3.33709C12.0083 3.09966 11.7445 2.86224 11.3224 2.6512C11.296 2.6512 11.2696 2.62482 11.2696 2.57206V1.62238C11.2696 0.936501 10.7156 0.35614 10.0034 0.35614H7.28622C6.60034 0.35614 6.01998 0.936501 6.01998 1.62238V2.6512C6.01998 2.67758 5.9936 2.70396 5.96722 2.73034C5.57152 2.915 5.28134 3.1788 4.96478 3.41623C4.91202 3.46899 4.83288 3.52175 4.78012 3.57451L3.38198 2.7831C2.85438 2.49292 2.40591 2.67758 2.22125 2.99414L0.770352 5.50025C0.691212 5.71129 0.664831 5.92233 0.717592 6.13337C0.770352 6.34441 0.902252 6.50269 1.08691 6.60821L2.56419 7.39961C2.51143 7.66341 2.51143 7.95359 2.51143 8.29653C2.51143 8.58671 2.53781 8.87689 2.56419 9.16707L1.03415 10.0112C0.691212 10.1959 0.559311 10.618 0.717592 10.9873L2.24763 13.5725C2.43229 13.8891 2.828 14.021 3.19732 13.8891L4.78012 13.0186C4.85926 13.0713 4.91202 13.1241 4.99116 13.2032C5.28134 13.467 5.57152 13.7044 5.9936 13.8891C6.01998 13.8891 6.04636 13.9155 6.04636 13.9682V15.1026C6.04636 15.7885 6.60034 16.3688 7.3126 16.3688H10.0034C10.6892 16.3688 11.2696 15.7885 11.2696 15.1026V13.8891C11.2696 13.8627 11.296 13.8363 11.3224 13.81C11.7181 13.6253 11.9819 13.3879 12.2984 13.1241C12.3776 13.0713 12.4303 13.0186 12.5095 12.9394L13.9076 13.7308C14.4352 14.021 14.8573 13.8363 15.0683 13.5198L16.5456 11.0137C16.6511 10.829 16.6775 10.618 16.6248 10.4333C16.572 10.2487 16.3873 10.064 16.2027 9.95848ZM14.1978 12.5701L12.9316 11.8578C12.5622 11.6468 12.1402 11.6996 11.8236 11.9634C11.6917 12.0689 11.5862 12.148 11.4806 12.2535C11.2168 12.491 11.0322 12.6492 10.7684 12.7548C10.3463 12.9658 10.0561 13.4143 10.0561 13.8891V15.0498C10.0561 15.1026 10.0297 15.129 9.97699 15.129H7.28622C7.23346 15.129 7.20708 15.1026 7.20708 15.0498V13.9155C7.20708 13.4406 6.9169 12.9922 6.49482 12.7811C6.23102 12.6492 6.01998 12.491 5.75618 12.2535C5.65066 12.1744 5.54514 12.0689 5.41324 11.9897C5.22858 11.8578 5.01754 11.7787 4.78012 11.7787C4.62184 11.7787 4.43718 11.8315 4.2789 11.9106L3.01266 12.6229L1.95745 10.829L3.19732 10.1431C3.56664 9.9321 3.77768 9.5364 3.72492 9.08793C3.69854 8.82413 3.67216 8.56033 3.67216 8.29653C3.67216 8.00635 3.69854 7.74255 3.72492 7.53151C3.80406 7.08305 3.59302 6.63459 3.19732 6.42355L2.03659 5.76405L3.06542 3.99659L4.33166 4.70885C4.70098 4.91989 5.12306 4.86713 5.43962 4.60333C5.54514 4.52419 5.65066 4.41867 5.75618 4.33953C6.01998 4.10211 6.23102 3.94383 6.49482 3.81193C6.94328 3.60089 7.20708 3.15242 7.20708 2.67758V1.64876C7.20708 1.596 7.23346 1.56962 7.28622 1.56962H9.97699C10.0297 1.56962 10.0561 1.596 10.0561 1.64876V2.6512C10.0561 3.12604 10.3463 3.57451 10.7684 3.78555C11.0322 3.91745 11.2168 4.07573 11.4806 4.28677C11.5862 4.39229 11.6917 4.47143 11.8236 4.57695C12.1402 4.84075 12.5886 4.86713 12.9316 4.65609L14.1978 3.94383L15.253 5.73767L14.0395 6.42355C13.6702 6.63459 13.4592 7.08305 13.5383 7.53151C13.5647 7.76893 13.5911 8.03273 13.5911 8.29653C13.5911 8.56033 13.5647 8.82413 13.5119 9.08793C13.4328 9.5364 13.6438 9.95848 14.0395 10.1695L15.2266 10.829L14.1978 12.5701Z" fill="#828282"/>
</svg>
