<svg width="30" height="32" viewBox="0 0 30 32" fill="none" xmlns="http://www.w3.org/2000/svg">
<g filter="url(#filter0_d_1_122)">
<path d="M25.1241 20.3564L24.332 19.1287C24.1736 18.8911 24.0944 18.6535 24.0944 18.3762V10.1386C24.0944 7.80198 23.1043 5.62376 21.2825 4C19.8171 2.69307 17.9161 1.86139 15.8963 1.70297V0.910891C15.8963 0.435644 15.5003 0 14.9854 0C14.5102 0 14.0746 0.39604 14.0746 0.910891V1.66337C13.9953 1.66337 13.9161 1.66337 13.8369 1.70297C9.24287 2.21782 5.79732 5.90099 5.79732 10.297V18.3762C5.75772 18.7723 5.67851 18.9703 5.5993 19.0891L4.84683 20.3564C4.6092 20.7525 4.6092 21.2277 4.84683 21.6238C5.08445 21.9802 5.48049 22.2178 5.91613 22.2178H14.1142V23.0891C14.1142 23.5644 14.5102 24 15.025 24C15.5003 24 15.9359 23.604 15.9359 23.0891V22.2178H24.0944C24.53 22.2178 24.926 21.9802 25.1637 21.6238C25.4013 21.2277 25.4013 20.7525 25.1241 20.3564ZM6.86663 20.4356L7.14386 19.9604C7.38148 19.5644 7.50029 19.0891 7.5795 18.5347V10.297C7.5795 6.81188 10.3518 3.88119 14.0349 3.48515C16.2924 3.24752 18.5102 3.92079 20.134 5.34653C21.5597 6.61386 22.3518 8.31683 22.3518 10.1386V18.3762C22.3518 18.9703 22.5102 19.5248 22.8666 20.0792L23.1043 20.4356H6.86663Z" fill="#754342"/>
</g>
<defs>
<filter id="filter0_d_1_122" x="0.66861" y="0" width="28.6686" height="32" filterUnits="userSpaceOnUse" color-interpolation-filters="sRGB">
<feFlood flood-opacity="0" result="BackgroundImageFix"/>
<feColorMatrix in="SourceAlpha" type="matrix" values="0 0 0 0 0 0 0 0 0 0 0 0 0 0 0 0 0 0 127 0" result="hardAlpha"/>
<feOffset dy="4"/>
<feGaussianBlur stdDeviation="2"/>
<feComposite in2="hardAlpha" operator="out"/>
<feColorMatrix type="matrix" values="0 0 0 0 0 0 0 0 0 0 0 0 0 0 0 0 0 0 0.25 0"/>
<feBlend mode="normal" in2="BackgroundImageFix" result="effect1_dropShadow_1_122"/>
<feBlend mode="normal" in="SourceGraphic" in2="effect1_dropShadow_1_122" result="shape"/>
</filter>
</defs>
</svg>
