<svg width="25" height="24" viewBox="0 0 25 24" fill="none" xmlns="http://www.w3.org/2000/svg">
<path d="M6.33333 0.75C6.33333 0.551088 6.25431 0.360322 6.11366 0.21967C5.97301 0.0790176 5.78224 0 5.58333 0C5.38442 0 5.19365 0.0790176 5.053 0.21967C4.91235 0.360322 4.83333 0.551088 4.83333 0.75V1.5H3.33333C2.53768 1.5 1.77462 1.81607 1.21201 2.37868C0.649399 2.94129 0.333328 3.70435 0.333328 4.5L0.333328 6H24.3333V4.5C24.3333 3.70435 24.0173 2.94129 23.4546 2.37868C22.892 1.81607 22.129 1.5 21.3333 1.5H19.8333V0.75C19.8333 0.551088 19.7543 0.360322 19.6137 0.21967C19.473 0.0790176 19.2822 0 19.0833 0C18.8844 0 18.6936 0.0790176 18.553 0.21967C18.4123 0.360322 18.3333 0.551088 18.3333 0.75V1.5H6.33333V0.75ZM24.3333 21V7.5H0.333328V21C0.333328 21.7956 0.649399 22.5587 1.21201 23.1213C1.77462 23.6839 2.53768 24 3.33333 24H21.3333C22.129 24 22.892 23.6839 23.4546 23.1213C24.0173 22.5587 24.3333 21.7956 24.3333 21ZM14.5833 10.5H16.0833C16.2822 10.5 16.473 10.579 16.6137 10.7197C16.7543 10.8603 16.8333 11.0511 16.8333 11.25V12.75C16.8333 12.9489 16.7543 13.1397 16.6137 13.2803C16.473 13.421 16.2822 13.5 16.0833 13.5H14.5833C14.3844 13.5 14.1937 13.421 14.053 13.2803C13.9123 13.1397 13.8333 12.9489 13.8333 12.75V11.25C13.8333 11.0511 13.9123 10.8603 14.053 10.7197C14.1937 10.579 14.3844 10.5 14.5833 10.5ZM19.0833 10.5H20.5833C20.7822 10.5 20.973 10.579 21.1137 10.7197C21.2543 10.8603 21.3333 11.0511 21.3333 11.25V12.75C21.3333 12.9489 21.2543 13.1397 21.1137 13.2803C20.973 13.421 20.7822 13.5 20.5833 13.5H19.0833C18.8844 13.5 18.6936 13.421 18.553 13.2803C18.4123 13.1397 18.3333 12.9489 18.3333 12.75V11.25C18.3333 11.0511 18.4123 10.8603 18.553 10.7197C18.6936 10.579 18.8844 10.5 19.0833 10.5ZM3.33333 15.75C3.33333 15.5511 3.41235 15.3603 3.553 15.2197C3.69365 15.079 3.88442 15 4.08333 15H5.58333C5.78224 15 5.97301 15.079 6.11366 15.2197C6.25431 15.3603 6.33333 15.5511 6.33333 15.75V17.25C6.33333 17.4489 6.25431 17.6397 6.11366 17.7803C5.97301 17.921 5.78224 18 5.58333 18H4.08333C3.88442 18 3.69365 17.921 3.553 17.7803C3.41235 17.6397 3.33333 17.4489 3.33333 17.25V15.75ZM8.58333 15H10.0833C10.2822 15 10.473 15.079 10.6137 15.2197C10.7543 15.3603 10.8333 15.5511 10.8333 15.75V17.25C10.8333 17.4489 10.7543 17.6397 10.6137 17.7803C10.473 17.921 10.2822 18 10.0833 18H8.58333C8.38442 18 8.19365 17.921 8.053 17.7803C7.91235 17.6397 7.83333 17.4489 7.83333 17.25V15.75C7.83333 15.5511 7.91235 15.3603 8.053 15.2197C8.19365 15.079 8.38442 15 8.58333 15Z" fill="#754342"/>
</svg>
