<svg width="13" height="13" viewBox="0 0 13 13" fill="none" xmlns="http://www.w3.org/2000/svg">
<path d="M11.959 8.95129C11.7128 8.95129 11.4872 9.15642 11.4872 9.42309V11.2487C11.4872 11.4333 11.3436 11.5769 11.159 11.5769H1.27179C1.08718 11.5769 0.94359 11.4333 0.94359 11.2487V9.42309C0.94359 9.15642 0.717949 8.95129 0.471795 8.95129C0.225641 8.95129 0 9.15642 0 9.42309V11.2487C0 11.9462 0.553846 12.5 1.25128 12.5H11.159C11.8564 12.5 12.4103 11.9462 12.4103 11.2487V9.42309C12.4308 9.15642 12.2051 8.95129 11.959 8.95129Z" fill="#C8C8C8"/>
<path d="M8.89507 5.93587L6.7002 8.0692L6.7002 0.971768C6.7002 0.725614 6.49507 0.499973 6.2284 0.499973C5.98225 0.499973 5.75661 0.705101 5.75661 0.971768L5.75661 8.0692L3.56174 5.93587C3.47969 5.85382 3.35661 5.81279 3.23353 5.81279C3.11045 5.81279 2.98738 5.85382 2.90533 5.95638C2.72071 6.141 2.74122 6.42818 2.90533 6.61279L5.92071 9.48459C6.10533 9.64869 6.39251 9.64869 6.55661 9.48459L9.55148 6.59228C9.7361 6.40767 9.7361 6.12049 9.55148 5.93587C9.36686 5.77177 9.07969 5.75126 8.89507 5.93587Z" fill="#C8C8C8"/>
</svg>
