<svg width="17" height="16" viewBox="0 0 17 16" fill="none" xmlns="http://www.w3.org/2000/svg">
<path d="M9.13148 7.99646L16.0351 1.09283C16.2898 0.838193 16.2898 0.442083 16.0351 0.187441C15.7805 -0.0672005 15.3844 -0.0672005 15.1297 0.187441L8.22609 7.09107L1.32246 0.187441C1.06782 -0.0672005 0.671713 -0.0672005 0.417071 0.187441C0.162429 0.442083 0.162429 0.838193 0.417071 1.09283L7.3207 7.99646L0.417071 14.9001C0.162429 15.1547 0.162429 15.5508 0.417071 15.8055C0.530245 15.9187 0.700006 16.0035 0.869768 16.0035C1.03953 16.0035 1.20929 15.9469 1.32246 15.8055L8.22609 8.90185L15.1297 15.8055C15.2429 15.9187 15.4127 16.0035 15.5824 16.0035C15.7522 16.0035 15.9219 15.9469 16.0351 15.8055C16.2898 15.5508 16.2898 15.1547 16.0351 14.9001L9.13148 7.99646Z" fill="#828282"/>
</svg>
