<svg width="16" height="19" viewBox="0 0 16 19" fill="none" xmlns="http://www.w3.org/2000/svg">
<path d="M11.7587 2.41737H11.3124V2.11985C11.3124 1.43556 10.7769 0.900019 10.1223 0.900019H8.42645V0.810762C8.42645 0.453738 8.12893 0.126465 7.74215 0.126465C7.38512 0.126465 7.05785 0.423986 7.05785 0.810762V0.900019H5.36198C4.70744 0.900019 4.1719 1.43556 4.1719 2.11985V2.41737H3.72562C2.77355 2.41737 2 3.22068 2 4.17275V16.3711C2 17.3529 2.77355 18.1265 3.72562 18.1265H11.7884C12.7405 18.1265 13.5141 17.3232 13.5141 16.3711V4.17275C13.4843 3.19093 12.7107 2.41737 11.7587 2.41737ZM5.51074 2.23886H9.97355V3.07192V3.90498H5.51074V2.23886ZM12.1455 16.3711C12.1455 16.6091 11.9669 16.7876 11.7587 16.7876H3.72562C3.51736 16.7876 3.33884 16.6091 3.33884 16.3711V4.17275C3.33884 3.93473 3.51736 3.75622 3.72562 3.75622H4.1719V4.05374C4.1719 4.73804 4.70744 5.27357 5.36198 5.27357H10.1223C10.7769 5.27357 11.3124 4.73804 11.3124 4.05374V3.75622H11.7884C11.9967 3.75622 12.1752 3.93473 12.1752 4.17275V16.3711H12.1455Z" fill="black"/>
</svg>
