<svg width="23" height="24" viewBox="0 0 23 24" fill="none" xmlns="http://www.w3.org/2000/svg">
<path d="M22.1176 6.89109C22.1176 4.71287 20.375 2.9703 18.1968 2.9703C17.1671 2.9703 16.2166 3.36634 15.5038 4.0396C14.4344 3.56436 13.3255 3.24752 12.0978 3.16832V1.82178H13.2067C13.682 1.82178 14.1176 1.42574 14.1176 0.910891C14.1176 0.39604 13.7216 0 13.2067 0H9.20673C8.73148 0 8.29584 0.39604 8.29584 0.910891C8.29584 1.42574 8.69188 1.82178 9.20673 1.82178H10.3156V3.20792C9.12752 3.32673 7.97901 3.60396 6.9097 4.07921C6.19683 3.40594 5.24633 3.0099 4.21663 3.0099C2.03841 3.0099 0.295837 4.75248 0.295837 6.93069C0.295837 8 0.731481 9.0297 1.52356 9.74257C1.04831 10.9307 0.771085 12.2376 0.771085 13.5842C0.771085 19.3267 5.44435 24 11.1869 24C16.9295 24 21.6028 19.3267 21.6028 13.5842C21.6028 12.2376 21.3255 10.9307 20.8503 9.74257C21.682 8.9901 22.1176 7.9604 22.1176 6.89109ZM18.1968 4.75248C19.3849 4.75248 20.3354 5.70297 20.3354 6.89109C20.3354 7.28713 20.2166 7.68317 20.0186 8C19.2661 6.81188 18.3156 5.82178 17.1671 5.0297C17.484 4.83168 17.8404 4.75248 18.1968 4.75248ZM2.11762 6.89109C2.11762 5.70297 3.06811 4.75248 4.25623 4.75248C4.61267 4.75248 4.9691 4.83168 5.28594 5.0297C4.13742 5.82178 3.18693 6.85148 2.43445 8C2.23643 7.64356 2.11762 7.28713 2.11762 6.89109Z" fill="#754342"/>
<path d="M15.7414 13.1089H12.1374V9.42572C12.1374 8.95047 11.7414 8.51483 11.2265 8.51483C10.7513 8.51483 10.3156 8.91087 10.3156 9.42572V13.1089H10.1968C9.72158 13.1089 9.28594 13.5049 9.28594 14.0198C9.28594 14.5346 9.68198 14.9307 10.1968 14.9307H10.3156V15.0495C10.3156 15.5247 10.7117 15.9604 11.2265 15.9604C11.7018 15.9604 12.1374 15.5643 12.1374 15.0495V14.9307H15.7414C16.2166 14.9307 16.6523 14.5346 16.6523 14.0198C16.6523 13.5049 16.2166 13.1089 15.7414 13.1089Z" fill="white"/>
</svg>
