<svg width="25" height="20" viewBox="0 0 25 20" fill="none" xmlns="http://www.w3.org/2000/svg">
<path d="M10.4429 10C11.769 10 13.0407 9.47322 13.9784 8.53553C14.9161 7.59785 15.4429 6.32608 15.4429 5C15.4429 3.67392 14.9161 2.40215 13.9784 1.46447C13.0407 0.526784 11.769 0 10.4429 0C9.11679 0 7.84502 0.526784 6.90734 1.46447C5.96966 2.40215 5.44287 3.67392 5.44287 5C5.44287 6.32608 5.96966 7.59785 6.90734 8.53553C7.84502 9.47322 9.11679 10 10.4429 10ZM13.7762 5C13.7762 5.88405 13.425 6.7319 12.7999 7.35702C12.1748 7.98214 11.3269 8.33333 10.4429 8.33333C9.55882 8.33333 8.71097 7.98214 8.08585 7.35702C7.46073 6.7319 7.10954 5.88405 7.10954 5C7.10954 4.11594 7.46073 3.2681 8.08585 2.64298C8.71097 2.01786 9.55882 1.66667 10.4429 1.66667C11.3269 1.66667 12.1748 2.01786 12.7999 2.64298C13.425 3.2681 13.7762 4.11594 13.7762 5ZM20.4429 18.3333C20.4429 20 18.7762 20 18.7762 20H2.10954C2.10954 20 0.442871 20 0.442871 18.3333C0.442871 16.6667 2.10954 11.6667 10.4429 11.6667C18.7762 11.6667 20.4429 16.6667 20.4429 18.3333ZM18.7762 18.3267C18.7745 17.9167 18.5195 16.6833 17.3895 15.5533C16.3029 14.4667 14.2579 13.3333 10.4429 13.3333C6.62787 13.3333 4.58287 14.4667 3.4962 15.5533C2.3662 16.6833 2.11287 17.9167 2.10954 18.3267H18.7762Z" fill="#754342"/>
<path fill-rule="evenodd" clip-rule="evenodd" d="M20.6095 5C20.8306 5 21.0425 5.0878 21.1988 5.24408C21.3551 5.40036 21.4429 5.61232 21.4429 5.83333V8.33333H23.9429C24.1639 8.33333 24.3758 8.42113 24.5321 8.57741C24.6884 8.73369 24.7762 8.94565 24.7762 9.16667C24.7762 9.38768 24.6884 9.59964 24.5321 9.75592C24.3758 9.9122 24.1639 10 23.9429 10H21.4429V12.5C21.4429 12.721 21.3551 12.933 21.1988 13.0893C21.0425 13.2455 20.8306 13.3333 20.6095 13.3333C20.3885 13.3333 20.1766 13.2455 20.0203 13.0893C19.864 12.933 19.7762 12.721 19.7762 12.5V10H17.2762C17.0552 10 16.8432 9.9122 16.6869 9.75592C16.5307 9.59964 16.4429 9.38768 16.4429 9.16667C16.4429 8.94565 16.5307 8.73369 16.6869 8.57741C16.8432 8.42113 17.0552 8.33333 17.2762 8.33333H19.7762V5.83333C19.7762 5.61232 19.864 5.40036 20.0203 5.24408C20.1766 5.0878 20.3885 5 20.6095 5Z" fill="#754342"/>
</svg>
