<svg width="20" height="20" viewBox="0 0 20 20" fill="none" xmlns="http://www.w3.org/2000/svg">
<path d="M19.9588 3.3456C19.9588 3.08125 19.8597 2.81689 19.6614 2.61862C19.2649 2.22209 18.8684 1.82556 18.5049 1.42903C18.1414 1.06554 17.811 0.702048 17.4475 0.371603C17.2822 0.173336 17.084 0.0411586 16.8196 0.00811417C16.5222 -0.0249303 16.2579 0.0411586 16.0266 0.239425L13.7795 2.48645H2.0818C0.958289 2.48645 0 3.41169 0 4.56825V17.9182C0 19.0417 0.925244 20 2.0818 20H15.4648C16.5883 20 17.5466 19.0748 17.5466 17.9182V6.18743L19.6945 4.03954C19.8597 3.84127 19.9588 3.60996 19.9588 3.3456ZM10.2438 11.3093C10.2107 11.3424 10.2107 11.3424 10.1777 11.3424L7.79849 12.1354L8.59155 9.75622C8.59155 9.72318 8.6246 9.72318 8.6246 9.69014L14.5726 3.74214L16.2248 5.36131L10.2438 11.3093ZM16.0266 17.9182C16.0266 18.2486 15.7622 18.513 15.4318 18.513H2.0818C1.75136 18.513 1.487 18.2486 1.487 17.9182V4.5352C1.487 4.20476 1.75136 3.9404 2.0818 3.9404H12.2595L7.56718 8.66576C7.40195 8.83098 7.23673 9.06229 7.17064 9.32665L5.948 13.0276C5.84887 13.292 5.91495 13.5233 6.04713 13.7546C6.14627 13.8868 6.34453 14.085 6.70802 14.085H6.8402L10.6403 12.8294C10.8716 12.7633 11.1029 12.598 11.2682 12.4328L16.0266 7.67443V17.9182ZM17.2492 4.33694L15.597 2.71776L16.6214 1.69338C16.8857 1.95774 17.9762 3.0482 18.2405 3.3456L17.2492 4.33694Z" fill="white"/>
</svg>
