<svg width="25" height="24" viewBox="0 0 25 24" fill="none" xmlns="http://www.w3.org/2000/svg">
<path d="M21.9958 24H16.8034C15.5351 24 14.4649 22.9694 14.4649 21.6614V17.46C14.4649 17.1429 14.227 16.905 13.91 16.905H10.739C10.4219 16.905 10.1841 17.1429 10.1841 17.46V21.6614C10.1841 22.9694 9.15355 24 7.84554 24H2.65314C1.38477 24 0.314575 22.9694 0.314575 21.6614V8.30388C0.314575 7.63006 0.631669 7.03551 1.18658 6.67878L11.2939 0.297275C11.9281 -0.0990917 12.7209 -0.0990917 13.3154 0.297275L23.4228 6.71842C23.9777 7.07515 24.2948 7.66969 24.2948 8.34352V21.6614C24.3344 22.9298 23.2642 24 21.9958 24ZM10.739 15.1214H13.91C15.218 15.1214 16.2485 16.1519 16.2485 17.46V21.6614C16.2485 21.9785 16.4863 22.2164 16.8034 22.2164H21.9958C22.3129 22.2164 22.5507 21.9785 22.5507 21.6614V8.30388C22.5507 8.26425 22.5111 8.22461 22.5111 8.18497L12.3641 1.80347C12.3245 1.76383 12.2848 1.76383 12.2452 1.80347L2.1775 8.18497C2.13786 8.22461 2.09823 8.26425 2.09823 8.30388V21.6614C2.09823 21.9785 2.33605 22.2164 2.65314 22.2164H7.84554C8.16263 22.2164 8.40045 21.9785 8.40045 21.6614V17.46C8.40045 16.1916 9.43101 15.1214 10.739 15.1214Z" fill="#754342"/>
</svg>
