<svg width="21" height="6" viewBox="0 0 21 6" fill="none" xmlns="http://www.w3.org/2000/svg">
<path d="M3.18939 5.25C2.59265 5.25 2.02036 5.01295 1.5984 4.59099C1.17645 4.16903 0.939392 3.59674 0.939392 3C0.939392 2.40326 1.17645 1.83097 1.5984 1.40901C2.02036 0.987053 2.59265 0.75 3.18939 0.75C3.78613 0.75 4.35843 0.987053 4.78038 1.40901C5.20234 1.83097 5.43939 2.40326 5.43939 3C5.43939 3.59674 5.20234 4.16903 4.78038 4.59099C4.35843 5.01295 3.78613 5.25 3.18939 5.25ZM10.6894 5.25C10.0927 5.25 9.52036 5.01295 9.0984 4.59099C8.67644 4.16903 8.43939 3.59674 8.43939 3C8.43939 2.40326 8.67644 1.83097 9.0984 1.40901C9.52036 0.987053 10.0927 0.75 10.6894 0.75C11.2861 0.75 11.8584 0.987053 12.2804 1.40901C12.7023 1.83097 12.9394 2.40326 12.9394 3C12.9394 3.59674 12.7023 4.16903 12.2804 4.59099C11.8584 5.01295 11.2861 5.25 10.6894 5.25ZM18.1894 5.25C17.5927 5.25 17.0204 5.01295 16.5984 4.59099C16.1764 4.16903 15.9394 3.59674 15.9394 3C15.9394 2.40326 16.1764 1.83097 16.5984 1.40901C17.0204 0.987053 17.5927 0.75 18.1894 0.75C18.7861 0.75 19.3584 0.987053 19.7804 1.40901C20.2023 1.83097 20.4394 2.40326 20.4394 3C20.4394 3.59674 20.2023 4.16903 19.7804 4.59099C19.3584 5.01295 18.7861 5.25 18.1894 5.25Z" fill="#754342"/>
</svg>
