<svg width="21" height="21" viewBox="0 0 21 21" fill="none" xmlns="http://www.w3.org/2000/svg">
<path d="M20.1485 3.70809C20.1485 3.44373 20.0493 3.17938 19.8511 2.98111C19.4545 2.58458 19.058 2.18805 18.6945 1.79151C18.331 1.42802 18.0006 1.06454 17.6371 0.734091C17.4719 0.535824 17.2736 0.403646 17.0093 0.370602C16.7119 0.337558 16.4475 0.403646 16.2162 0.601913L13.9692 2.84894H2.27144C1.14792 2.84894 0.189636 3.77418 0.189636 4.93074V18.2807C0.189636 19.4042 1.11488 20.3625 2.27144 20.3625H15.6544C16.7779 20.3625 17.7362 19.4372 17.7362 18.2807V6.54991L19.8841 4.40202C20.0493 4.20376 20.1485 3.97245 20.1485 3.70809ZM10.4334 11.6718C10.4004 11.7048 10.4004 11.7048 10.3673 11.7048L7.98812 12.4979L8.78119 10.1187C8.78119 10.0857 8.81423 10.0857 8.81423 10.0526L14.7622 4.10462L16.4145 5.7238L10.4334 11.6718ZM16.2162 18.2807C16.2162 18.6111 15.9518 18.8755 15.6214 18.8755H2.27144C1.94099 18.8755 1.67664 18.6111 1.67664 18.2807V4.89769C1.67664 4.56725 1.94099 4.30289 2.27144 4.30289H12.4491L7.75681 9.02825C7.59159 9.19347 7.42637 9.42478 7.36028 9.68913L6.13763 13.3901C6.0385 13.6545 6.10459 13.8858 6.23677 14.1171C6.3359 14.2493 6.53417 14.4475 6.89766 14.4475H7.02983L10.8299 13.1918C11.0613 13.1258 11.2926 12.9605 11.4578 12.7953L16.2162 8.03691V18.2807ZM17.4388 4.69942L15.7866 3.08025L16.811 2.05587C17.0753 2.32022 18.1658 3.41069 18.4302 3.70809L17.4388 4.69942Z" fill="black"/>
</svg>
