<svg width="18" height="25" viewBox="0 0 18 25" fill="none" xmlns="http://www.w3.org/2000/svg">
<g filter="url(#filter0_d_196_7551)">
<path d="M9.3083 16.6375C9.25542 16.6375 9.22898 16.6375 9.1761 16.6375C7.95983 16.6375 6.6378 16.1351 5.81814 15.3684C4.9456 14.5487 4.46967 13.4382 4.46967 12.3012V4.10465C4.46967 2.96771 5.02492 1.93652 6.00322 1.2755C6.95509 0.614488 8.14491 0.455845 9.25542 0.852454L9.3083 0.878895C9.4405 0.931776 9.59915 0.958217 9.75779 1.06398C10.9741 1.69855 11.7144 2.8355 11.7144 4.13109V11.1379C11.7144 11.8518 11.4764 12.5128 11.0269 13.0416C10.9476 13.1473 10.8947 13.2002 10.8419 13.2267C10.3395 13.6762 9.75779 13.9141 9.09678 13.9141C8.35644 13.9141 7.64254 13.5704 7.16661 13.0151C6.71712 12.4863 6.45271 11.7989 6.45271 11.085V5.2416C6.45271 4.92431 6.71712 4.63347 7.06085 4.63347C7.40458 4.63347 7.66898 4.89787 7.66898 5.2416V11.1114C7.66898 11.5345 7.82763 11.9575 8.09203 12.2748C8.33 12.5657 8.72661 12.7507 9.09678 12.7507C9.44051 12.7507 9.73135 12.6185 9.99576 12.3806C10.0222 12.3541 10.0486 12.3277 10.1015 12.2748C10.3659 11.9575 10.5246 11.5609 10.5246 11.1379V4.10465C10.5246 3.25855 10.0486 2.51821 9.20254 2.09516L9.1761 2.06872C9.12322 2.04228 9.07034 2.01584 8.96457 1.9894L8.88525 1.96296C8.11847 1.69855 7.32525 1.80432 6.66424 2.25381C6.00322 2.67686 5.65949 3.33787 5.65949 4.07821V12.2748C5.65949 13.068 6.02966 13.8877 6.6378 14.4694C7.24593 15.0246 8.27712 15.4212 9.20254 15.4212C10.1015 15.4477 10.9476 15.104 11.6086 14.4958C12.2432 13.8877 12.5869 13.0945 12.5605 12.2748V5.90262C12.5605 5.58533 12.8249 5.29448 13.1686 5.29448C13.5124 5.29448 13.7768 5.55889 13.7768 5.90262V12.2748C13.8032 13.4118 13.3273 14.5223 12.4547 15.3684C11.5822 16.1616 10.4452 16.6375 9.3083 16.6375Z" fill="#828282"/>
</g>
<defs>
<filter id="filter0_d_196_7551" x="0.469666" y="0.637512" width="17.3082" height="24" filterUnits="userSpaceOnUse" color-interpolation-filters="sRGB">
<feFlood flood-opacity="0" result="BackgroundImageFix"/>
<feColorMatrix in="SourceAlpha" type="matrix" values="0 0 0 0 0 0 0 0 0 0 0 0 0 0 0 0 0 0 127 0" result="hardAlpha"/>
<feOffset dy="4"/>
<feGaussianBlur stdDeviation="2"/>
<feComposite in2="hardAlpha" operator="out"/>
<feColorMatrix type="matrix" values="0 0 0 0 0 0 0 0 0 0 0 0 0 0 0 0 0 0 0.25 0"/>
<feBlend mode="normal" in2="BackgroundImageFix" result="effect1_dropShadow_196_7551"/>
<feBlend mode="normal" in="SourceGraphic" in2="effect1_dropShadow_196_7551" result="shape"/>
</filter>
</defs>
</svg>
