<svg width="21" height="16" viewBox="0 0 21 16" fill="none" xmlns="http://www.w3.org/2000/svg">
<path fill-rule="evenodd" clip-rule="evenodd" d="M10.365 15.1111C10.365 14.8754 10.4586 14.6493 10.6253 14.4826C10.792 14.3159 11.0181 14.2222 11.2539 14.2222H19.3372C19.5729 14.2222 19.799 14.3159 19.9657 14.4826C20.1324 14.6493 20.2261 14.8754 20.2261 15.1111C20.2261 15.3469 20.1324 15.573 19.9657 15.7397C19.799 15.9064 19.5729 16 19.3372 16H11.2539C11.0181 16 10.792 15.9064 10.6253 15.7397C10.4586 15.573 10.365 15.3469 10.365 15.1111ZM5.36498 8C5.36498 7.76425 5.45863 7.53816 5.62533 7.37146C5.79203 7.20476 6.01812 7.11111 6.25387 7.11111H19.3372C19.5729 7.11111 19.799 7.20476 19.9657 7.37146C20.1324 7.53816 20.2261 7.76425 20.2261 8C20.2261 8.23575 20.1324 8.46184 19.9657 8.62854C19.799 8.79524 19.5729 8.88889 19.3372 8.88889H6.25387C6.01812 8.88889 5.79203 8.79524 5.62533 8.62854C5.45863 8.46184 5.36498 8.23575 5.36498 8ZM0.670532 0.888889C0.670532 0.653141 0.764183 0.427049 0.930882 0.26035C1.09758 0.0936507 1.32367 0 1.55942 0H19.3372C19.5729 0 19.799 0.0936507 19.9657 0.26035C20.1324 0.427049 20.2261 0.653141 20.2261 0.888889C20.2261 1.12464 20.1324 1.35073 19.9657 1.51743C19.799 1.68413 19.5729 1.77778 19.3372 1.77778H1.55942C1.32367 1.77778 1.09758 1.68413 0.930882 1.51743C0.764183 1.35073 0.670532 1.12464 0.670532 0.888889Z" fill="#754342"/>
</svg>
