<svg width="18" height="17" viewBox="0 0 18 17" fill="none" xmlns="http://www.w3.org/2000/svg">
<path d="M16.5964 11.6309C16.2682 11.6309 15.9674 11.9044 15.9674 12.2599V14.6941C15.9674 14.9403 15.7759 15.1317 15.5298 15.1317H2.34686C2.10071 15.1317 1.90926 14.9403 1.90926 14.6941V12.2599C1.90926 11.9044 1.6084 11.6309 1.2802 11.6309C0.951993 11.6309 0.651138 11.9044 0.651138 12.2599V14.6941C0.651138 15.624 1.3896 16.3625 2.31951 16.3625H15.5298C16.4597 16.3625 17.1981 15.624 17.1981 14.6941V12.2599C17.2255 11.9044 16.9246 11.6309 16.5964 11.6309Z" fill="#828282"/>
<path d="M12.5111 7.61038L9.58463 10.4548L9.58463 0.991572C9.58463 0.663367 9.31112 0.362512 8.95557 0.362512C8.62736 0.362512 8.32651 0.636016 8.32651 0.991572L8.32651 10.4548L5.40001 7.61038C5.29061 7.50097 5.12651 7.44627 4.9624 7.44627C4.7983 7.44627 4.6342 7.50097 4.5248 7.63773C4.27864 7.88388 4.30599 8.26679 4.5248 8.51294L8.54531 12.342C8.79146 12.5608 9.17437 12.5608 9.39317 12.342L13.3863 8.48559C13.6325 8.23944 13.6325 7.85653 13.3863 7.61038C13.1402 7.39157 12.7573 7.36422 12.5111 7.61038Z" fill="#828282"/>
</svg>
