<svg width="15" height="15" viewBox="0 0 23 23" fill="none" xmlns="http://www.w3.org/2000/svg">
<path d="M12.1378 10.8573L12.1378 1.09415C12.1378 0.73403 11.8577 0.453938 11.4975 0.453938C11.1374 0.453938 10.8573 0.734029 10.8573 1.09415L10.8573 10.8573L1.09414 10.8573C0.734018 10.8573 0.453926 11.1374 0.453926 11.4976C0.453926 11.8577 0.734018 12.1378 1.09414 12.1378L10.8573 12.1378L10.8573 21.901C10.8573 22.2611 11.1374 22.5412 11.4975 22.5412C11.6576 22.5412 11.8377 22.4812 11.9577 22.3611C12.0777 22.2411 12.1578 22.081 12.1378 21.901L12.1378 12.1378L21.901 12.1378C22.061 12.1378 22.2411 12.0777 22.3611 11.9577C22.4811 11.8377 22.5612 11.6776 22.5412 11.4976C22.5412 11.1374 22.2611 10.8573 21.901 10.8573L12.1378 10.8573Z" fill="#DEDEDE"/>
</svg>
