<svg width="15" height="15" viewBox="0 0 15 15" fill="none" xmlns="http://www.w3.org/2000/svg">
<path fill-rule="evenodd" clip-rule="evenodd" d="M8.26326 3.5625C8.26326 3.44647 8.21507 3.33519 8.12929 3.25314C8.04352 3.17109 7.92718 3.125 7.80587 3.125H1.73544C1.37152 3.125 1.02251 3.26328 0.765177 3.50942C0.507848 3.75556 0.363281 4.0894 0.363281 4.4375L0.363281 13.1875C0.363281 13.5356 0.507848 13.8694 0.765177 14.1156C1.02251 14.3617 1.37152 14.5 1.73544 14.5H10.8832C11.2471 14.5 11.5961 14.3617 11.8534 14.1156C12.1108 13.8694 12.2553 13.5356 12.2553 13.1875V7.381C12.2553 7.26497 12.2071 7.15369 12.1214 7.07164C12.0356 6.98959 11.9192 6.9435 11.7979 6.9435C11.6766 6.9435 11.5603 6.98959 11.4745 7.07164C11.3887 7.15369 11.3406 7.26497 11.3406 7.381V13.1875C11.3406 13.3035 11.2924 13.4148 11.2066 13.4969C11.1208 13.5789 11.0045 13.625 10.8832 13.625H1.73544C1.61413 13.625 1.4978 13.5789 1.41202 13.4969C1.32624 13.4148 1.27805 13.3035 1.27805 13.1875V4.4375C1.27805 4.32147 1.32624 4.21019 1.41202 4.12814C1.4978 4.04609 1.61413 4 1.73544 4H7.80587C7.92718 4 8.04352 3.95391 8.12929 3.87186C8.21507 3.78981 8.26326 3.67853 8.26326 3.5625Z" fill="#828282"/>
<path fill-rule="evenodd" clip-rule="evenodd" d="M14.9999 0.9375C14.9999 0.821468 14.9517 0.710188 14.8659 0.628141C14.7801 0.546094 14.6638 0.5 14.5425 0.5H9.96862C9.84731 0.5 9.73097 0.546094 9.6452 0.628141C9.55942 0.710188 9.51123 0.821468 9.51123 0.9375C9.51123 1.05353 9.55942 1.16481 9.6452 1.24686C9.73097 1.32891 9.84731 1.375 9.96862 1.375H13.4384L5.9857 8.50275C5.94317 8.54343 5.90944 8.59172 5.88642 8.64486C5.86341 8.69801 5.85156 8.75497 5.85156 8.8125C5.85156 8.87003 5.86341 8.92699 5.88642 8.98014C5.90944 9.03328 5.94317 9.08157 5.9857 9.12225C6.02822 9.16293 6.07871 9.19519 6.13427 9.21721C6.18983 9.23922 6.24939 9.25055 6.30953 9.25055C6.36967 9.25055 6.42922 9.23922 6.48478 9.21721C6.54035 9.19519 6.59083 9.16293 6.63336 9.12225L14.0851 1.99363V5.3125C14.0851 5.42853 14.1333 5.53981 14.2191 5.62186C14.3048 5.70391 14.4212 5.75 14.5425 5.75C14.6638 5.75 14.7801 5.70391 14.8659 5.62186C14.9517 5.53981 14.9999 5.42853 14.9999 5.3125V0.9375Z" fill="#828282"/>
</svg>
